<svg width="37" height="37" viewBox="0 0 37 37" fill="none" xmlns="http://www.w3.org/2000/svg">
<rect x="2" y="12" width="28" height="4" rx="1" fill="white"/>
<rect x="32" y="13" width="3" height="5" rx="1.5" fill="white"/>
<rect x="26" y="14" width="7" height="6" fill="white"/>
<path d="M5 20H30V22C30 23.1046 29.1046 24 28 24H5V20Z" fill="white"/>
<path d="M34 18H34.5C34.7761 18 35 18.2239 35 18.5V18.5C35 18.7761 34.7761 19 34.5 19V19C34.2239 19 34 18.7761 34 18.5V18Z" fill="white"/>
<path d="M34 18H34.5C34.7761 18 35 18.2239 35 18.5V18.5C35 18.7761 34.7761 19 34.5 19V19C34.2239 19 34 18.7761 34 18.5V18Z" fill="white"/>
<rect x="5" y="15" width="25" height="8" fill="white"/>
<path d="M33 19H33.9615C33.9828 19 34 19.0172 34 19.0385V19.0385C34 19.5695 33.5695 20 33.0385 20V20C33.0172 20 33 19.9828 33 19.9615V19Z" fill="white"/>
<path d="M33 19H33.9615C33.9828 19 34 19.0172 34 19.0385V19.0385C34 19.5695 33.5695 20 33.0385 20V20C33.0172 20 33 19.9828 33 19.9615V19Z" fill="white"/>
<rect x="34" y="17" width="1" height="1" fill="white"/>
<rect x="34" y="17" width="1" height="1" fill="white"/>
<rect x="27" y="12" width="7" height="3" rx="1" fill="white"/>
<rect x="33" y="15" width="1" height="4" fill="white"/>
<g clip-path="url(#clip0)">
<path d="M35.9357 13.4992L34.9942 13.2985C34.8748 13.1397 34.7469 12.9876 34.6013 12.8483C34.5298 12.78 34.4519 12.7181 34.3746 12.6558C33.6016 12.0344 32.5434 11.7162 31.2169 11.7162H29.9672H27.5722L25.4582 11.2657L19.6111 1.59112C19.3043 1.08343 18.9021 0.829712 18.5 0.829712C18.0979 0.829712 17.6957 1.08356 17.3889 1.59112L11.5418 11.2655L9.42783 11.7161H7.03283H4.63795H2.19256C1.73656 11.7161 1.35628 12.0235 1.23657 12.4412C1.21163 12.5286 1.19381 12.6191 1.19381 12.7148V12.9609V13.4714L1.06418 13.4989C-0.0960513 13.7462 -0.346374 14.6163 0.505507 15.4422L4.57229 19.3855V20.0812V20.7768V23.4353C4.57229 23.9866 5.01954 24.4339 5.57097 24.4339H7.15567H7.65984H8.16395L6.72187 34.7861C6.60098 35.6539 6.96834 36.1698 7.5979 36.1698C7.82061 36.1698 8.07629 36.1053 8.35468 35.9689L18.4999 31.0015L28.6449 35.969C28.9234 36.1053 29.179 36.1701 29.4017 36.1701C30.0315 36.1701 30.3988 35.6543 30.2778 34.7862L28.8357 24.4341H29.0374C29.1411 24.4341 29.2389 24.414 29.333 24.3845C29.5153 24.3278 29.6738 24.2216 29.7948 24.0797C29.9431 23.9054 30.0362 23.6823 30.0362 23.4354V23.0955V22.4002V21.7046L31.3401 20.4403C31.6238 20.4245 31.8928 20.3933 32.1509 20.3498C32.5012 20.2909 32.8274 20.2061 33.1294 20.0963C33.6683 19.9004 34.1334 19.6281 34.5138 19.2721C34.9551 18.8587 35.2825 18.3656 35.4982 17.7994C35.6087 17.5094 35.688 17.1992 35.7386 16.8708C35.7759 16.6288 35.7969 16.3765 35.8017 16.1142L36.4946 15.4423C37.3463 14.6165 37.0962 13.7465 35.9357 13.4992ZM34.6285 17.2519C34.4695 17.7598 34.2063 18.1921 33.8314 18.5432C33.5037 18.8501 33.0883 19.0795 32.5868 19.2316C32.0927 19.3819 31.5145 19.4571 30.8516 19.4571H29.0379V22.6727V23.4354H28.6971H25.7105V12.7149H31.217C32.4162 12.7149 33.3144 13.0002 33.9116 13.5706C34.5088 14.1411 34.8075 14.9528 34.8075 16.0058C34.8075 16.4645 34.7454 16.8782 34.6285 17.2519ZM5.5711 21.7454V21.0499V20.3541V15.3621H2.19256V13.2587V12.7482V12.7151H2.3481H4.74291H12.2622V15.3623H8.88365V23.4357H8.30298H7.79888H7.29471H5.5711V21.7454ZM18.5 23.6183C17.291 23.6183 16.2903 23.4257 15.4982 23.0406C14.706 22.6555 14.0637 22.0461 13.5713 21.2125C13.079 20.3787 12.8327 19.3355 12.8327 18.0825C12.8327 16.3323 13.3203 14.9697 14.2952 13.9947C15.2703 13.0196 16.6279 12.5323 18.3684 12.5323C20.1526 12.5323 21.5274 13.0113 22.4927 13.9692C23.4581 14.9272 23.9407 16.2692 23.9407 17.9949C23.9407 19.2478 23.7298 20.2753 23.3081 21.0772C22.8865 21.8791 22.2771 22.5032 21.4799 22.9494C20.6827 23.3956 19.6896 23.6183 18.5 23.6183Z" fill="#204D48"/>
<path d="M18.3608 15.0404C17.693 15.0404 17.1566 15.2769 16.752 15.7497C16.3474 16.2226 16.145 17.005 16.145 18.0971C16.145 19.1796 16.3462 19.9571 16.7485 20.4298C17.1507 20.9028 17.6978 21.1391 18.3901 21.1391C19.1018 21.1391 19.6528 20.9076 20.0427 20.4444C20.4328 19.9811 20.6278 19.1501 20.6278 17.9507C20.6278 16.9416 20.4243 16.2042 20.0172 15.7386C19.6102 15.2734 19.0582 15.0404 18.3608 15.0404Z" fill="#204D48"/>
<path d="M29.9814 14.8943H29.0381V17.2855H29.8498C30.4884 17.2855 30.937 17.1747 31.1954 16.9527C31.4539 16.7308 31.583 16.447 31.583 16.1009C31.583 15.7645 31.4709 15.4793 31.2466 15.2452C31.0223 15.0113 30.6007 14.8943 29.9814 14.8943Z" fill="#204D48"/>
</g>
<defs>
<clipPath id="clip0">
<rect width="37" height="37" fill="white"/>
</clipPath>
</defs>
</svg>
